<svg width="42.187500" height="48.000000" viewBox="0 0 42.1875 48" fill="none" xmlns="http://www.w3.org/2000/svg" xmlns:xlink="http://www.w3.org/1999/xlink">
	<desc>
			Created with Pixso.
	</desc>
	<defs/>
	<path id="Vector" d="M21.0938 0C9.46265 0 0 9.46265 0 21.0938C0 22.3827 0 32.3539 0 32.5312C0 34.8575 1.89252 36.75 4.21875 36.75L5.86688 36.75C6.44739 38.3867 8.01047 39.5625 9.84375 39.5625C12.17 39.5625 14.0625 37.67 14.0625 35.3438L14.0625 23.9062C14.0625 21.58 12.17 19.6875 9.84375 19.6875C8.01047 19.6875 6.44739 20.8633 5.86688 22.5L4.21875 22.5C3.72571 22.5 3.25266 22.5858 2.8125 22.7419L2.8125 21.0938C2.8125 11.0135 11.0135 2.8125 21.0938 2.8125C31.174 2.8125 39.375 11.0135 39.375 21.0938L39.375 22.7419C38.9348 22.5858 38.4618 22.5 37.9688 22.5L36.3206 22.5C35.7401 20.8633 34.177 19.6875 32.3438 19.6875C30.0175 19.6875 28.125 21.58 28.125 23.9062L28.125 35.3438C28.125 37.67 30.0175 39.5625 32.3438 39.5625C32.7695 39.5625 33.1805 39.4985 33.5682 39.3807C33.0422 41.1115 31.4317 42.375 29.5312 42.375L25.0706 42.375C24.4901 40.7383 22.927 39.5625 21.0938 39.5625C18.7675 39.5625 16.875 41.455 16.875 43.7812C16.875 46.1075 18.7675 48 21.0938 48C22.927 48 24.4901 46.8242 25.0706 45.1875L29.5312 45.1875C33.4083 45.1875 36.5625 42.0333 36.5625 38.1562L36.5625 36.75L37.9688 36.75C40.295 36.75 42.1875 34.8575 42.1875 32.5312C42.1875 32.3565 42.1875 22.3817 42.1875 21.0938C42.1875 9.46265 32.7249 0 21.0938 0ZM8.4375 23.9062C8.4375 23.1309 9.06836 22.5 9.84375 22.5C10.6191 22.5 11.25 23.1309 11.25 23.9062L11.25 35.3438C11.25 36.1191 10.6191 36.75 9.84375 36.75C9.06836 36.75 8.4375 36.1191 8.4375 35.3438L8.4375 23.9062ZM4.21875 25.3125L5.625 25.3125L5.625 33.9375L4.21875 33.9375C3.44333 33.9375 2.8125 33.3066 2.8125 32.5312L2.8125 26.7188C2.8125 25.9434 3.44333 25.3125 4.21875 25.3125ZM21.0938 45.1875C20.3183 45.1875 19.6875 44.5566 19.6875 43.7812C19.6875 43.0059 20.3183 42.375 21.0938 42.375C21.8692 42.375 22.5 43.0059 22.5 43.7812C22.5 44.5566 21.8692 45.1875 21.0938 45.1875ZM33.75 35.3438C33.75 36.1191 33.1192 36.75 32.3438 36.75C31.5683 36.75 30.9375 36.1191 30.9375 35.3438L30.9375 23.9062C30.9375 23.1309 31.5683 22.5 32.3438 22.5C33.1192 22.5 33.75 23.1309 33.75 23.9062L33.75 35.3438ZM39.375 32.5312C39.375 33.3066 38.7442 33.9375 37.9688 33.9375L36.5625 33.9375L36.5625 25.3125L37.9688 25.3125C38.7442 25.3125 39.375 25.9434 39.375 26.7188L39.375 32.5312Z" fill="#156963" fill-opacity="1.000000" fill-rule="nonzero"/>
</svg>
